<svg xmlns="http://www.w3.org/2000/svg" xmlns:xlink="http://www.w3.org/1999/xlink" xmlns:fi="http://pattern.flaticon.com/" x="0" y="0" width="699" height="350" viewBox="0 0 699 350"><rect x="0px" y="0px" width="100%" height="100%" opacity="1" fill="#f3f4f6" /><defs><g transform="matrix(0.15217390656471252 0 0 0.15217390656471252 315 315.0000010774031)" id="L1_102"><path d="M383.396,366.171h-22.361V193.37c0-68.426-55.668-124.095-124.095-124.095h-3.984   c-68.426,0-124.095,55.669-124.095,124.095v172.801H86.5c-4.048,0-7.328,3.281-7.328,7.328v79.172c0,4.047,3.281,7.328,7.328,7.328   h296.896c4.048,0,7.328-3.281,7.328-7.328v-79.172C390.724,369.452,387.444,366.171,383.396,366.171z M123.518,193.37   c0-60.344,49.094-109.438,109.438-109.438h3.984c60.344,0,109.438,49.094,109.438,109.438v172.801h-222.86V193.37z    M376.068,380.828v24.929H93.829v-24.929H376.068z M93.829,445.343v-24.93h282.239v24.93H93.829z" id="XMLID_1024_"/><path d="M234.949,54.243c4.048,0,7.328-3.281,7.328-7.328V7.328c0-4.047-3.281-7.328-7.328-7.328   c-4.048,0-7.328,3.281-7.328,7.328v39.586C227.62,50.962,230.901,54.243,234.949,54.243z" id="XMLID_1035_"/><path d="M83.932,185.465c0-4.047-3.281-7.328-7.328-7.328H37.018c-4.048,0-7.328,3.281-7.328,7.328   s3.281,7.328,7.328,7.328h39.586C80.652,192.794,83.932,189.513,83.932,185.465z" id="XMLID_1036_"/><path d="M422.982,178.137h-39.586c-4.048,0-7.328,3.281-7.328,7.328s3.281,7.328,7.328,7.328h39.586   c4.048,0,7.328-3.281,7.328-7.328S427.03,178.137,422.982,178.137z" id="XMLID_1046_"/><path d="M353.706,93.829c1.875,0,3.751-0.716,5.182-2.147l27.991-27.992c2.862-2.862,2.862-7.502,0-10.364   c-2.863-2.862-7.502-2.862-10.365,0l-27.991,27.992c-2.862,2.862-2.862,7.502,0,10.364   C349.955,93.113,351.831,93.829,353.706,93.829z" id="XMLID_1047_"/><path d="M111.008,91.683c1.431,1.431,3.306,2.147,5.182,2.147c1.875,0,3.751-0.716,5.182-2.147   c2.862-2.862,2.862-7.502,0-10.364L93.381,53.327c-2.862-2.862-7.501-2.863-10.365,0c-2.862,2.862-2.862,7.502,0,10.364   L111.008,91.683z" id="XMLID_1048_"/><path d="M234.949,148.448c-42.24,0-76.604,34.364-76.604,76.604s34.364,76.604,76.604,76.604   s76.604-34.364,76.604-76.604S277.188,148.448,234.949,148.448z M234.949,286.999c-34.157,0-61.947-27.789-61.947-61.947   s27.79-61.947,61.947-61.947s61.947,27.789,61.947,61.947S269.106,286.999,234.949,286.999z" id="XMLID_1052_"/><path d="M234.949,178.137c-25.869,0-46.914,21.046-46.914,46.915c0,25.868,21.045,46.914,46.914,46.914   c4.048,0,7.328-3.281,7.328-7.328v-79.172C242.277,181.418,238.996,178.137,234.949,178.137z M227.62,256.47   c-14.268-3.327-24.929-16.151-24.929-31.418c0-15.268,10.661-28.091,24.929-31.418V256.47z" id="XMLID_1059_"/></g><g transform="matrix(0.14673912525177002 0 0 0.14673912525177002 135.25000089406967 -31.749987490676858)" id="L1_105"><path d="M404.316,242.105h-21.789V230c0-4.011-3.251-7.263-7.263-7.263h-46.484   c-7.743,0-14.042-6.299-14.042-14.042v-68.274h28.158c4.012,0,7.263-3.252,7.263-7.263V98.421c0-4.011-3.251-7.263-7.263-7.263   H318.33c-6.213-16.847-17.329-31.882-31.741-42.746c-9.13-6.882-19.239-11.954-29.958-15.105V7.263   c0-4.011-3.251-7.263-7.263-7.263h-38.737c-4.011,0-7.263,3.252-7.263,7.263v26.044c-10.719,3.151-20.827,8.222-29.958,15.105   c-14.412,10.864-25.527,25.899-31.741,42.746h-24.565c-4.011,0-7.263,3.252-7.263,7.263v34.737c0,4.011,3.252,7.263,7.263,7.263   h28.158v68.274c0,7.743-6.299,14.042-14.042,14.042H84.737c-4.011,0-7.263,3.252-7.263,7.263v12.105H55.684   c-4.011,0-7.263,3.252-7.263,7.263v58.105c0,4.011,3.252,7.263,7.263,7.263h21.789v12.105c0,4.011,3.252,7.263,7.263,7.263h46.484   c7.743,0,14.042,6.299,14.042,14.042v68.274h-31.474c-4.011,0-7.263,3.252-7.263,7.263v29.053c0,4.011,3.252,7.263,7.263,7.263   h232.421c4.012,0,7.263-3.252,7.263-7.263v-29.053c0-4.011-3.251-7.263-7.263-7.263h-31.474v-68.274   c0-7.743,6.299-14.042,14.042-14.042h46.484c4.012,0,7.263-3.252,7.263-7.263v-12.105h21.789c4.012,0,7.263-3.252,7.263-7.263   v-58.105C411.579,245.357,408.328,242.105,404.316,242.105z M217.895,14.526h24.211v15.748c-3.984-0.508-8.023-0.775-12.105-0.775   s-8.121,0.267-12.105,0.775V14.526z M230,44.026c31.42,0,60.015,18.953,72.672,47.132H157.328   C169.985,62.979,198.581,44.026,230,44.026z M124.368,105.684h211.264v20.211H124.368V105.684z M62.947,300.211v-43.579h14.526   v43.579H62.947z M92,237.263h24.211v82.316H92V237.263z M338.947,445.474H121.053v-14.526h217.895V445.474z M300.211,348.147   v68.274H159.789v-68.274c0-15.752-12.816-28.568-28.568-28.568h-0.484v-82.316h0.484c15.752,0,28.568-12.816,28.568-28.568v-68.274   h140.421v68.274c0,15.752,12.815,28.568,28.568,28.568h0.484v82.316h-0.484C313.026,319.579,300.211,332.395,300.211,348.147z    M368,319.579h-24.211v-82.316H368V319.579z M397.053,300.211h-14.526v-43.579h14.526V300.211z" id="XMLID_1224_"/><path d="M230,213.053c-36.044,0-65.368,29.324-65.368,65.368s29.324,65.368,65.368,65.368   s65.368-29.324,65.368-65.368S266.044,213.053,230,213.053z M230,329.263c-28.035,0-50.842-22.808-50.842-50.842   s22.808-50.842,50.842-50.842c28.034,0,50.842,22.808,50.842,50.842S258.034,329.263,230,329.263z" id="XMLID_1248_"/><path d="M230,251.789c-14.685,0-26.632,11.947-26.632,26.632s11.947,26.632,26.632,26.632   c14.684,0,26.632-11.947,26.632-26.632S244.684,251.789,230,251.789z M230,290.526c-6.675,0-12.105-5.43-12.105-12.105   s5.43-12.105,12.105-12.105s12.105,5.43,12.105,12.105S236.675,290.526,230,290.526z" id="XMLID_1251_"/></g><g transform="matrix(0.1304347813129425 0 0 0.1304347813129425 202.00000191066601 150)" id="L1_107"><path d="M302.556,118.125c32.567,0,59.062-26.495,59.062-59.062S335.123,0,302.556,0   c-32.568,0-59.063,26.495-59.063,59.062S269.988,118.125,302.556,118.125z M302.556,14.526c24.558,0,44.536,19.978,44.536,44.536   s-19.978,44.536-44.536,44.536s-44.537-19.978-44.537-44.536S277.999,14.526,302.556,14.526z" id="XMLID_912_"/><path d="M422.394,168.758l-30.044-41.44c-1.175-1.62-2.966-2.684-4.95-2.94c-1.983-0.253-3.987,0.319-5.535,1.586   l-49.623,40.676c-1.597,1.31-3.668,1.81-5.689,1.382c-2.018-0.431-3.705-1.737-4.628-3.583l-12.872-25.744   c-1.23-2.461-3.745-4.016-6.496-4.016c-41.695,0-75.616-33.921-75.616-75.615c0-4.012-3.251-7.263-7.263-7.263H117.087   c-16.172,0-30.71,8.985-37.942,23.45l-31.721,63.443c-1.57,3.14-0.67,6.953,2.138,9.059l41.439,31.08   c1.723,1.293,3.934,1.75,6.026,1.259c2.097-0.496,3.865-1.894,4.828-3.821l24.925-49.852c2.558-5.115,7.699-8.293,13.419-8.293   h17.683l-38.295,117.902c-2.083,5.487-3.14,11.243-3.14,17.113c0,0.252,0.013,0.503,0.039,0.754l8.038,76.987   c0.339,3.664-0.779,7.231-3.147,10.046c-2.369,2.815-5.692,4.527-9.369,4.82l-69.11,5.619c-1.934,0.158-3.725,1.082-4.973,2.568   c-1.248,1.486-1.85,3.408-1.671,5.34l4.874,52.692c0.178,1.921,1.112,3.692,2.597,4.923c1.486,1.231,3.401,1.825,5.32,1.639   l113.453-10.744c26.011-2.468,45.245-25.551,43.036-51.541l0.111-44.446l51.202,35.801c4.321,3.285,6.897,8.474,6.897,13.903   v91.236c0,4.012,3.251,7.263,7.263,7.263h62.159c4.012,0,7.263-3.251,7.263-7.263V339.198c0-15.529-6.702-30.3-18.39-40.526   c-0.147-0.129-0.3-0.252-0.457-0.368l-64.548-47.861c-4.74-4.294-6.328-11.121-3.946-17.076l10.247-25.618l26.583,31.9   c12.118,14.54,34,16.751,48.779,4.926l82.354-65.883C424.079,176.271,424.67,171.897,422.394,168.758z M329.623,233.232   c-8.648,6.919-21.455,5.625-28.545-2.884l-34.382-41.258c-1.638-1.965-4.184-2.926-6.717-2.523c-2.527,0.4-4.657,2.1-5.607,4.476   L239.6,227.972c-4.7,11.752-1.458,25.246,8.067,33.58c0.148,0.129,0.3,0.252,0.457,0.368l64.561,47.87   c8.404,7.461,13.217,18.162,13.217,29.408v106.276H278.27v-83.973c0-10.014-4.783-19.581-12.796-25.591   c-0.064-0.048-0.13-0.096-0.196-0.142l-62.701-43.84c-2.217-1.548-5.109-1.74-7.51-0.493c-2.4,1.246-3.909,3.722-3.915,6.427   l-0.147,58.675c-0.001,0.229,0.009,0.459,0.031,0.688c1.682,18.18-11.736,34.373-29.911,36.097L54.921,403.38l-3.527-38.132   l61.778-5.022c7.57-0.605,14.43-4.138,19.318-9.948c4.888-5.811,7.196-13.175,6.488-20.821l-8.004-76.678   c0.043-4.023,0.796-7.967,2.242-11.727c0.045-0.12,0.088-0.241,0.128-0.363l41.44-127.585c0.719-2.211,0.335-4.632-1.032-6.513   c-1.367-1.88-3.551-2.993-5.876-2.993h-27.678c-11.257,0-21.378,6.255-26.411,16.323l-21.034,42.067l-29.627-22.221l29.01-58.022   c4.756-9.511,14.316-15.42,24.95-15.42h95.616c3.592,44.828,40.12,80.512,85.308,82.765l10.921,21.844   c2.909,5.818,8.227,9.934,14.589,11.292c6.368,1.359,12.898-0.23,17.93-4.352l43.663-35.79l21.454,29.592L329.623,233.232z" id="XMLID_1356_"/></g><path d="M390.419,13.834c-1.684-1.379-3.896-1.932-6.031-1.506L273.093,34.587  c-3.396,0.679-5.841,3.661-5.841,7.125v2.806h-29.986V7.266C237.266,3.253,234.013,0,230,0h-44.518  c-4.013,0-7.266,3.253-7.266,7.266v37.252h-11.933c2.604-4.398,4.105-9.522,4.105-14.993C170.388,13.245,157.144,0,140.863,0  s-29.525,13.245-29.525,29.525c0,5.628,1.585,10.893,4.329,15.374c-27.4,3.173-48.746,26.505-48.746,54.742v25.013  c0,4.013,3.253,7.266,7.266,7.266h28.201c4.013,0,7.266-3.253,7.266-7.266v-19.455c0-10.924,8.887-19.811,19.811-19.811h48.751  v7.802c-38.128,8.273-66.777,42.271-66.777,82.841v276.704c0,4.013,3.253,7.266,7.266,7.266h178.072  c4.013,0,7.266-3.253,7.266-7.266V176.03c0-40.569-28.649-74.567-66.777-82.841v-7.802h29.986v2.856  c0,3.464,2.445,6.446,5.841,7.125l111.295,22.259c0.473,0.095,0.95,0.141,1.425,0.141c1.665,0,3.296-0.573,4.606-1.647  c1.684-1.38,2.659-3.442,2.659-5.619v-91.05C393.079,17.276,392.103,15.214,390.419,13.834z M192.748,14.532h29.986v74.504h-29.986  V14.532z M140.863,14.532c8.267,0,14.993,6.726,14.993,14.993s-6.726,14.993-14.993,14.993s-14.993-6.726-14.993-14.993  S132.596,14.532,140.863,14.532z M129.466,70.856c-18.937,0-34.343,15.406-34.343,34.343v12.189H81.453V99.641  c0-22.382,18.209-40.591,40.591-40.591h56.172v11.807H129.466z M125.971,445.468v-15.922h163.54v15.922H125.971z M289.511,176.03  v238.984h-163.54V176.03c0-38.729,31.508-70.237,70.237-70.237h23.067C258.003,105.793,289.511,137.302,289.511,176.03z   M237.266,70.856V59.05h29.986v11.807H237.266z M378.547,101.64l-96.763-19.353V47.668l96.763-19.353V101.64z" transform="matrix(0.1304347813129425 0 0 0.1304347813129425 40 152)" id="L1_108"/></defs><g fi:class="KUsePattern" opacity="0.1"><pattern id="pattern_L1_102" width="350" height="350" patternUnits="userSpaceOnUse"><use xlink:href="#L1_102" x="-350" y="-350"/><use xlink:href="#L1_102" x="0" y="-350"/><use xlink:href="#L1_102" x="350" y="-350"/><use xlink:href="#L1_102" x="-350" y="0"/><use xlink:href="#L1_102" x="0" y="0"/><use xlink:href="#L1_102" x="350" y="0"/><use xlink:href="#L1_102" x="-350" y="350"/><use xlink:href="#L1_102" x="0" y="350"/><use xlink:href="#L1_102" x="350" y="350"/></pattern><rect x="0" y="0" width="100%" height="100%" fill="url(#pattern_L1_102)"/></g><g fi:class="KUsePattern" opacity="0.1"><pattern id="pattern_L1_105" width="350" height="350" patternUnits="userSpaceOnUse"><use xlink:href="#L1_105" x="-350" y="-350"/><use xlink:href="#L1_105" x="0" y="-350"/><use xlink:href="#L1_105" x="350" y="-350"/><use xlink:href="#L1_105" x="-350" y="0"/><use xlink:href="#L1_105" x="0" y="0"/><use xlink:href="#L1_105" x="350" y="0"/><use xlink:href="#L1_105" x="-350" y="350"/><use xlink:href="#L1_105" x="0" y="350"/><use xlink:href="#L1_105" x="350" y="350"/></pattern><rect x="0" y="0" width="100%" height="100%" fill="url(#pattern_L1_105)"/></g><g fi:class="KUsePattern" opacity="0.1"><pattern id="pattern_L1_107" width="350" height="350" patternUnits="userSpaceOnUse"><use xlink:href="#L1_107" x="-350" y="-350"/><use xlink:href="#L1_107" x="0" y="-350"/><use xlink:href="#L1_107" x="350" y="-350"/><use xlink:href="#L1_107" x="-350" y="0"/><use xlink:href="#L1_107" x="0" y="0"/><use xlink:href="#L1_107" x="350" y="0"/><use xlink:href="#L1_107" x="-350" y="350"/><use xlink:href="#L1_107" x="0" y="350"/><use xlink:href="#L1_107" x="350" y="350"/></pattern><rect x="0" y="0" width="100%" height="100%" fill="url(#pattern_L1_107)"/></g><g fi:class="KUsePattern" opacity="0.1"><pattern id="pattern_L1_108" width="350" height="350" patternUnits="userSpaceOnUse"><use xlink:href="#L1_108" x="-350" y="-350"/><use xlink:href="#L1_108" x="0" y="-350"/><use xlink:href="#L1_108" x="350" y="-350"/><use xlink:href="#L1_108" x="-350" y="0"/><use xlink:href="#L1_108" x="0" y="0"/><use xlink:href="#L1_108" x="350" y="0"/><use xlink:href="#L1_108" x="-350" y="350"/><use xlink:href="#L1_108" x="0" y="350"/><use xlink:href="#L1_108" x="350" y="350"/></pattern><rect x="0" y="0" width="100%" height="100%" fill="url(#pattern_L1_108)"/></g></svg>